<?xml version="1.0" encoding="UTF-8" standalone="no"?>
<svg
   xmlns:dc="http://purl.org/dc/elements/1.1/"
   xmlns:cc="http://creativecommons.org/ns#"
   xmlns:rdf="http://www.w3.org/1999/02/22-rdf-syntax-ns#"
   xmlns:svg="http://www.w3.org/2000/svg"
   xmlns="http://www.w3.org/2000/svg"
   xmlns:sodipodi="http://sodipodi.sourceforge.net/DTD/sodipodi-0.dtd"
   xmlns:inkscape="http://www.inkscape.org/namespaces/inkscape"
   inkscape:version="1.0rc1 (09960d6, 2020-04-09)"
   sodipodi:docname="delete-stashed.svg"
   id="svg10"
   version="1.1"
   viewBox="0 0 96 96"
   height="96"
   width="96">
  <sodipodi:namedview
     inkscape:document-rotation="0"
     inkscape:current-layer="svg10"
     inkscape:window-maximized="1"
     inkscape:window-y="23"
     inkscape:window-x="38"
     inkscape:cy="52.780331"
     inkscape:cx="39.809285"
     inkscape:zoom="8.3020833"
     showgrid="true"
     id="namedview5971"
     inkscape:window-height="1005"
     inkscape:window-width="1642"
     inkscape:pageshadow="2"
     inkscape:pageopacity="0"
     guidetolerance="10"
     gridtolerance="10"
     objecttolerance="10"
     borderopacity="1"
     bordercolor="#666666"
     pagecolor="#ffffff">
    <inkscape:grid
       spacingx="3"
       spacingy="3"
       empspacing="2"
       dotted="false"
       id="grid6516"
       type="xygrid" />
  </sodipodi:namedview>
  <metadata
     id="metadata16">
    <rdf:RDF>
      <cc:Work
         rdf:about="">
        <dc:format>image/svg+xml</dc:format>
        <dc:type
           rdf:resource="http://purl.org/dc/dcmitype/StillImage" />
        <dc:title></dc:title>
      </cc:Work>
    </rdf:RDF>
  </metadata>
  <defs
     id="defs14" />
  <path
     d="M 15,24 39,48 15,72 c -8.9999999,9 0,18 9,9 L 48,57 72,81 c 9,9 18,0 9,-9 L 57,48 81,24 C 90,15 81,6 72,15 L 48,39 24,15 C 15,6 6.0000001,15 15,24 Z"
     id="path820-5"
     inkscape:connector-curvature="0"
     sodipodi:nodetypes="ccccccccccccc"
     fill="context-fill"
     style="fill:#f9f9fa;fill-opacity:0.8" />
  <path
     id="path10"
     d="m 18,90 h 60 c 6,0 -3,3 -18,-12 H 36 C 21,93 12,90 18,90 Z"
     inkscape:connector-curvature="0"
     sodipodi:nodetypes="ccccc"
     fill="context-fill"
     style="fill:#f9f9fa;fill-opacity:0.8" />
  <path
     style="fill:#f9f9fa;fill-opacity:0.8"
     fill="context-fill"
     sodipodi:nodetypes="ccccsc"
     inkscape:connector-curvature="0"
     d="M 6,42 C 6,42 6,69 6,78 6,84 3,75 18,60 V 42 c 0,0 0,-6 -6,-6 -6,0 -6,6 -6,6 z"
     id="path10-9" />
  <path
     style="fill:#f9f9fa;fill-opacity:0.8"
     fill="context-fill"
     sodipodi:nodetypes="ccsccc"
     inkscape:connector-curvature="0"
     d="M 90,78 V 42 c 0,0 0,-6 -6,-6 -6,0 -6,6 -6,6 v 18 c 15,15 12,24 12,18 z"
     id="path10-3" />
</svg>
