<?xml version="1.0" encoding="UTF-8" standalone="no"?>
<svg
   xmlns:dc="http://purl.org/dc/elements/1.1/"
   xmlns:cc="http://creativecommons.org/ns#"
   xmlns:rdf="http://www.w3.org/1999/02/22-rdf-syntax-ns#"
   xmlns:svg="http://www.w3.org/2000/svg"
   xmlns="http://www.w3.org/2000/svg"
   xmlns:sodipodi="http://sodipodi.sourceforge.net/DTD/sodipodi-0.dtd"
   xmlns:inkscape="http://www.inkscape.org/namespaces/inkscape"
   width="96"
   height="96"
   viewBox="0 0 96 96"
   version="1.1"
   id="svg10"
   sodipodi:docname="new-empty-group.svg"
   inkscape:version="0.92.2 5c3e80d, 2017-08-06">
  <sodipodi:namedview
     pagecolor="#ffffff"
     bordercolor="#666666"
     borderopacity="1"
     objecttolerance="10"
     gridtolerance="10"
     guidetolerance="10"
     inkscape:pageopacity="0"
     inkscape:pageshadow="2"
     inkscape:window-width="1535"
     inkscape:window-height="1148"
     id="namedview5971"
     showgrid="true"
     inkscape:zoom="10.114583"
     inkscape:cx="48"
     inkscape:cy="48"
     inkscape:window-x="-1"
     inkscape:window-y="0"
     inkscape:window-maximized="0"
     inkscape:current-layer="svg10"
     inkscape:measure-start="18,93"
     inkscape:measure-end="27,93">
    <inkscape:grid
       type="xygrid"
       id="grid6516"
       dotted="false"
       empspacing="2"
       spacingy="3"
       spacingx="3" />
  </sodipodi:namedview>
  <metadata
     id="metadata16">
    <rdf:RDF>
      <cc:Work
         rdf:about="">
        <dc:format>image/svg+xml</dc:format>
        <dc:type
           rdf:resource="http://purl.org/dc/dcmitype/StillImage" />
        <dc:title />
      </cc:Work>
    </rdf:RDF>
  </metadata>
  <defs
     id="defs14" />
  <path
     d="m 6,42 v 30 c 0,12 6,18 18,18 H 72 C 84,90 90,84 90,72 V 42 c 0,0 0,-6 -6,-6 -6,0 -6,6 -6,6 V 78 H 18 V 42 c 0,0 0,-6 -6,-6 -6,0 -6,6 -6,6 z"
     id="path10"
     inkscape:connector-curvature="0"
     sodipodi:nodetypes="csssscsccccsc"
     fill="context-fill"
     style="fill:#f9f9fa;fill-opacity:0.80000001" />
  <path
     d="m 45,3 v 9 H 33 c 0,0 -3,0 -3,3 0,3 3,3 3,3 h 12 v 9 c 0,2.072846 1.5,3.035803 3,3 1.5,-0.0358 3,-1.070366 3,-3 v -9 h 12 c 0,0 3,0 3,-3 0,-3 -3,-3 -3,-3 H 51 V 3 c 0,0 0,-3 -3,-3 -3,0 -3,3 -3,3 z"
     id="path815"
     inkscape:connector-curvature="0"
     sodipodi:nodetypes="cccscccscccscccsc"
     fill="context-fill"
     style="fill:#f9f9fa;fill-opacity:0.80000001" />
</svg>
