<?xml version="1.0" encoding="UTF-8" standalone="no"?>
<svg
   width="96"
   height="96"
   viewBox="0 0 96 96"
   version="1.1"
   id="svg10"
   sodipodi:docname="delete-opened.svg"
   inkscape:version="1.2.2 (b0a84865, 2022-12-01)"
   xmlns:inkscape="http://www.inkscape.org/namespaces/inkscape"
   xmlns:sodipodi="http://sodipodi.sourceforge.net/DTD/sodipodi-0.dtd"
   xmlns="http://www.w3.org/2000/svg"
   xmlns:svg="http://www.w3.org/2000/svg"
   xmlns:rdf="http://www.w3.org/1999/02/22-rdf-syntax-ns#"
   xmlns:cc="http://creativecommons.org/ns#"
   xmlns:dc="http://purl.org/dc/elements/1.1/">
  <sodipodi:namedview
     pagecolor="#ffffff"
     bordercolor="#666666"
     borderopacity="1"
     objecttolerance="10"
     gridtolerance="10"
     guidetolerance="10"
     inkscape:pageopacity="0"
     inkscape:pageshadow="2"
     inkscape:window-width="1480"
     inkscape:window-height="997"
     id="namedview5971"
     showgrid="true"
     inkscape:zoom="8.09375"
     inkscape:cx="48"
     inkscape:cy="48"
     inkscape:window-x="0"
     inkscape:window-y="38"
     inkscape:window-maximized="0"
     inkscape:current-layer="svg10"
     inkscape:showpageshadow="2"
     inkscape:pagecheckerboard="0"
     inkscape:deskcolor="#d1d1d1">
    <inkscape:grid
       type="xygrid"
       id="grid6516"
       dotted="false"
       empspacing="2"
       spacingy="3"
       spacingx="3" />
  </sodipodi:namedview>
  <metadata
     id="metadata16">
    <rdf:RDF>
      <cc:Work
         rdf:about="">
        <dc:format>image/svg+xml</dc:format>
        <dc:type
           rdf:resource="http://purl.org/dc/dcmitype/StillImage" />
        <dc:title />
      </cc:Work>
    </rdf:RDF>
  </metadata>
  <defs
     id="defs14" />
  <path
     d="M 24,30 42,48 24,66 c -6,6 0,12 6,6 L 48,54 66,72 c 6,6 12,0 6,-6 L 54,48 72,30 c 6,-6 0,-12 -6,-6 L 48,42 30,24 c -6,-6 -12,0 -6,6 z"
     id="path820"
     inkscape:connector-curvature="0"
     sodipodi:nodetypes="ccccccccccccc"
     fill="context-fill"
     style="fill:#808080;fill-opacity:1" />
  <path
     d="M 18,6 C 12,6 6,12 6,18 v 60 c 0,6 6,12 12,12 h 60 c 6,0 12,-6 12,-12 V 18 C 90,12 84,6 78,6 Z m 6,6 h 24 24 c 6,0 12,6 12,12 v 24 24 c 0,6 -6,12 -12,12 H 48 24 C 18,84 12,78 12,72 V 48 24 c 0,-6 6,-12 12,-12 z"
     id="rect1435"
     inkscape:connector-curvature="0"
     sodipodi:nodetypes="cccccccccccccccccccccc"
     fill="context-fill"
     style="fill:#808080;fill-opacity:1" />
</svg>
