<?xml version="1.0" encoding="UTF-8" standalone="no"?>
<svg
   width="96"
   height="96"
   viewBox="0 0 96 96"
   version="1.1"
   id="svg10"
   sodipodi:docname="export.svg"
   inkscape:version="1.4 (e7c3feb1, 2024-10-09)"
   xmlns:inkscape="http://www.inkscape.org/namespaces/inkscape"
   xmlns:sodipodi="http://sodipodi.sourceforge.net/DTD/sodipodi-0.dtd"
   xmlns="http://www.w3.org/2000/svg"
   xmlns:svg="http://www.w3.org/2000/svg"
   xmlns:rdf="http://www.w3.org/1999/02/22-rdf-syntax-ns#"
   xmlns:cc="http://creativecommons.org/ns#"
   xmlns:dc="http://purl.org/dc/elements/1.1/">
  <sodipodi:namedview
     pagecolor="#ffffff"
     bordercolor="#666666"
     borderopacity="1"
     objecttolerance="10"
     gridtolerance="10"
     guidetolerance="10"
     inkscape:pageopacity="0"
     inkscape:pageshadow="2"
     inkscape:window-width="1208"
     inkscape:window-height="1035"
     id="namedview5971"
     showgrid="true"
     inkscape:zoom="6.5729167"
     inkscape:cx="48.076069"
     inkscape:cy="47.92393"
     inkscape:window-x="513"
     inkscape:window-y="38"
     inkscape:window-maximized="0"
     inkscape:current-layer="svg10"
     inkscape:showpageshadow="2"
     inkscape:pagecheckerboard="0"
     inkscape:deskcolor="#d1d1d1">
    <inkscape:grid
       type="xygrid"
       id="grid6516"
       dotted="false"
       empspacing="2"
       spacingy="3"
       spacingx="3"
       originx="0"
       originy="0"
       units="px" />
  </sodipodi:namedview>
  <metadata
     id="metadata16">
    <rdf:RDF>
      <cc:Work
         rdf:about="">
        <dc:format>image/svg+xml</dc:format>
        <dc:type
           rdf:resource="http://purl.org/dc/dcmitype/StillImage" />
      </cc:Work>
    </rdf:RDF>
  </metadata>
  <defs
     id="defs14" />
  <path
     id="path10"
     d="m 6,54 v 18 c 0,12 6,18 18,18 H 72 C 84,90 90,84 90,72 V 54 c 0,0 0,-6 -3,-6 -3,0 -3,6 -3,6 v 18 c 0,6 -6,12 -12,12 H 24 C 18,84 12,78 12,72 V 54 c 0,0 0,-6 -3,-6 -3,0 -3,6 -3,6 z"
     inkscape:connector-curvature="0"
     sodipodi:nodetypes="csssscscsssscsc"
     fill="context-fill"
     style="fill:#808080;fill-opacity:1" />
  <g
     id="path69581"
     style="stroke:none;stroke-opacity:1;fill:#808080;fill-opacity:1" />
  <path
     style="color:#000000;fill:#808080;stroke-linecap:round;stroke-linejoin:round;-inkscape-stroke:none"
     d="M 26.32658,36.351237 C 25.531688,36.313187 24.784483,35.960869 24.2494,35.371812 23.136101,34.145395 23.227395,32.248784 24.453343,31.13497 L 44.162447,5.9349311 c 2.142426,-2.100003 6.384854,-2.057581 8.484857,0.08485 L 71.497871,31.401453 c 1.249879,1.086893 1.382395,2.98107 0.296027,4.231406 -1.086892,1.249879 -2.98107,1.382395 -4.231406,0.296028 L 50.98099,12.854501 50.703125,59.581517 c 0,0 0.06524,5.999645 -2.934582,6.032265 -2.999822,0.03262 -3.065063,-5.967024 -3.065063,-5.967024 l 0.387605,-46.148273 -16.604842,22.07727 c -0.588675,0.534478 -1.365455,0.813398 -2.159663,0.775482 z"
     id="path396-9"
     sodipodi:nodetypes="ccccccccccscccc" />
</svg>
