<?xml version="1.0" encoding="UTF-8" standalone="no"?>
<svg
   inkscape:export-ydpi="64"
   inkscape:export-xdpi="64"
   inkscape:export-filename="/Users/des/src/tab-stash/dist/icons/logo-64.png"
   inkscape:version="1.2.2 (b0a84865, 2022-12-01)"
   sodipodi:docname="filtered-visible.svg"
   width="96"
   height="96"
   viewBox="0 0 96 96"
   version="1.1"
   id="svg10"
   xmlns:inkscape="http://www.inkscape.org/namespaces/inkscape"
   xmlns:sodipodi="http://sodipodi.sourceforge.net/DTD/sodipodi-0.dtd"
   xmlns="http://www.w3.org/2000/svg"
   xmlns:svg="http://www.w3.org/2000/svg"
   xmlns:rdf="http://www.w3.org/1999/02/22-rdf-syntax-ns#"
   xmlns:cc="http://creativecommons.org/ns#"
   xmlns:dc="http://purl.org/dc/elements/1.1/">
  <sodipodi:namedview
     inkscape:document-rotation="0"
     inkscape:current-layer="g886"
     inkscape:window-maximized="0"
     inkscape:window-y="38"
     inkscape:window-x="0"
     inkscape:cy="48"
     inkscape:cx="48.115523"
     inkscape:zoom="8.65625"
     showgrid="true"
     id="namedview9"
     inkscape:window-height="1051"
     inkscape:window-width="1728"
     inkscape:pageshadow="2"
     inkscape:pageopacity="0"
     guidetolerance="10"
     gridtolerance="10"
     objecttolerance="10"
     borderopacity="1"
     bordercolor="#666666"
     pagecolor="#ffffff"
     inkscape:showpageshadow="2"
     inkscape:pagecheckerboard="0"
     inkscape:deskcolor="#d1d1d1">
    <inkscape:grid
       spacingy="3"
       spacingx="3"
       empspacing="2"
       id="grid817"
       type="xygrid" />
  </sodipodi:namedview>
  <metadata
     id="metadata16">
    <rdf:RDF>
      <cc:Work
         rdf:about="">
        <dc:format>image/svg+xml</dc:format>
        <dc:type
           rdf:resource="http://purl.org/dc/dcmitype/StillImage" />
      </cc:Work>
    </rdf:RDF>
  </metadata>
  <defs
     id="defs14" />
  <g
     transform="translate(-31.941406,-9.733276)"
     style="opacity:1"
     id="g886">
    <path
       id="path890"
       mask="none"
       style="color:#000000;font-style:normal;font-variant:normal;font-weight:normal;font-stretch:normal;font-size:medium;line-height:normal;font-family:sans-serif;font-variant-ligatures:normal;font-variant-position:normal;font-variant-caps:normal;font-variant-numeric:normal;font-variant-alternates:normal;font-variant-east-asian:normal;font-feature-settings:normal;font-variation-settings:normal;text-indent:0;text-align:start;text-decoration:none;text-decoration-line:none;text-decoration-style:solid;text-decoration-color:#000000;letter-spacing:normal;word-spacing:normal;text-transform:none;writing-mode:lr-tb;direction:ltr;text-orientation:mixed;dominant-baseline:auto;baseline-shift:baseline;text-anchor:start;white-space:normal;shape-padding:0;shape-margin:0;inline-size:0;clip-rule:nonzero;display:inline;overflow:visible;visibility:visible;isolation:auto;mix-blend-mode:normal;color-interpolation:sRGB;color-interpolation-filters:linearRGB;solid-color:#000000;solid-opacity:1;vector-effect:none;fill:#808080;fill-opacity:1;fill-rule:nonzero;stroke:none;stroke-width:12;stroke-linecap:round;stroke-linejoin:miter;stroke-miterlimit:4;stroke-dasharray:none;stroke-dashoffset:0;stroke-opacity:1;color-rendering:auto;image-rendering:auto;shape-rendering:auto;text-rendering:auto;enable-background:accumulate;stop-color:#000000;stop-opacity:1"
       d="m 31.941406,57.733276 c 0,12 18,30 48,30 30.000004,0 48.000004,-18 48.000004,-30 0,-12 -18,-30 -48.000004,-30 -30,0 -48,18 -48,30 z m 90.000004,0 c 0,6 -18,24 -42.000004,24 -24,0 -42,-18 -42,-24 0,-6 18,-24 42,-24 24.000004,0 42.000004,18 42.000004,24 z"
       sodipodi:nodetypes="ssssssssss" />
    <g
       id="rect992"
       transform="matrix(1,0,0,1.0000569,0,-0.0014081)" />
    <path
       style="color:#000000;fill:#808080;stroke-linecap:round;stroke-linejoin:round;-inkscape-stroke:none"
       d="m 79.941406,39.732422 c -9.905581,0 -18,8.094418 -18,18 0,9.905582 8.094419,18 18,18 9.905582,0 18,-8.094418 18,-18 0,-9.905582 -8.094418,-18 -18,-18 z m 0,6 c 6.662944,0 12,5.337056 12,12 0,6.662944 -5.337056,12 -12,12 -6.662944,0 -12,-5.337056 -12,-12 0,-6.662944 5.337056,-12 12,-12 z"
       id="path514" />
  </g>
</svg>
