<?xml version="1.0" encoding="UTF-8" standalone="no"?>
<svg
   inkscape:export-ydpi="64"
   inkscape:export-xdpi="64"
   inkscape:export-filename="/Users/des/src/tab-stash/dist/icons/logo-64.png"
   inkscape:version="1.2.2 (b0a84865, 2022-12-01)"
   sodipodi:docname="filtered-hidden.svg"
   width="96"
   height="96"
   viewBox="0 0 96 96"
   version="1.1"
   id="svg10"
   xmlns:inkscape="http://www.inkscape.org/namespaces/inkscape"
   xmlns:sodipodi="http://sodipodi.sourceforge.net/DTD/sodipodi-0.dtd"
   xmlns="http://www.w3.org/2000/svg"
   xmlns:svg="http://www.w3.org/2000/svg"
   xmlns:rdf="http://www.w3.org/1999/02/22-rdf-syntax-ns#"
   xmlns:cc="http://creativecommons.org/ns#"
   xmlns:dc="http://purl.org/dc/elements/1.1/">
  <sodipodi:namedview
     inkscape:document-rotation="0"
     inkscape:current-layer="g886"
     inkscape:window-maximized="0"
     inkscape:window-y="38"
     inkscape:window-x="0"
     inkscape:cy="48"
     inkscape:cx="48.115523"
     inkscape:zoom="8.65625"
     showgrid="true"
     id="namedview9"
     inkscape:window-height="1051"
     inkscape:window-width="1728"
     inkscape:pageshadow="2"
     inkscape:pageopacity="0"
     guidetolerance="10"
     gridtolerance="10"
     objecttolerance="10"
     borderopacity="1"
     bordercolor="#666666"
     pagecolor="#ffffff"
     inkscape:showpageshadow="2"
     inkscape:pagecheckerboard="0"
     inkscape:deskcolor="#d1d1d1">
    <inkscape:grid
       spacingy="3"
       spacingx="3"
       empspacing="2"
       id="grid817"
       type="xygrid" />
  </sodipodi:namedview>
  <metadata
     id="metadata16">
    <rdf:RDF>
      <cc:Work
         rdf:about="">
        <dc:format>image/svg+xml</dc:format>
        <dc:type
           rdf:resource="http://purl.org/dc/dcmitype/StillImage" />
      </cc:Work>
    </rdf:RDF>
  </metadata>
  <defs
     id="defs14" />
  <g
     transform="translate(-31.941406,-9.733276)"
     style="fill:#808080"
     id="g886">
    <path
       id="path890"
       mask="none"
       style="fill:#808080"
       d="m 31.941406,57.733276 c 0,12 18,30 48,30 30.000004,0 48.000004,-18 48.000004,-30 0,-12 -18,-30 -48.000004,-30 -30,0 -48,18 -48,30 z m 90.000004,0 c 0,6 -18,24 -42.000004,24 -24,0 -42,-18 -42,-24 0,-6 18,-24 42,-24 24.000004,0 42.000004,18 42.000004,24 z"
       sodipodi:nodetypes="ssssssssss" />
    <path
       style="fill:#808080"
       d="m 79.941406,39.732422 c -9.905581,0 -18,8.094418 -18,18 0,9.905582 8.094419,18 18,18 9.905582,0 18,-8.094418 18,-18 0,-9.905582 -8.094418,-18 -18,-18 z m 0,6 c 6.662944,0 12,5.337056 12,12 0,6.662944 -5.337056,12 -12,12 -6.662944,0 -12,-5.337056 -12,-12 0,-6.662944 5.337056,-12 12,-12 z"
       id="path514" />
    <path
       style="fill:#808080"
       d="m 109.94141,21.733276 c -6,6 -60.000004,60 -66.000004,66 -6,6 0,12 6,6 6,-6 60.000004,-60 66.000004,-66 6,-6 0,-12 -6,-6 z"
       id="path8319"
       sodipodi:nodetypes="sssss" />
  </g>
</svg>
