<?xml version="1.0" encoding="UTF-8" standalone="no"?>
<svg
   id="svg10"
   version="1.1"
   viewBox="0 0 96 96"
   height="96"
   width="96"
   sodipodi:docname="move-menu.svg"
   inkscape:version="1.2.2 (b0a84865, 2022-12-01)"
   xmlns:inkscape="http://www.inkscape.org/namespaces/inkscape"
   xmlns:sodipodi="http://sodipodi.sourceforge.net/DTD/sodipodi-0.dtd"
   xmlns="http://www.w3.org/2000/svg"
   xmlns:svg="http://www.w3.org/2000/svg"
   xmlns:rdf="http://www.w3.org/1999/02/22-rdf-syntax-ns#"
   xmlns:cc="http://creativecommons.org/ns#"
   xmlns:dc="http://purl.org/dc/elements/1.1/">
  <sodipodi:namedview
     pagecolor="#ffffff"
     bordercolor="#666666"
     borderopacity="1"
     objecttolerance="10"
     gridtolerance="10"
     guidetolerance="10"
     inkscape:pageopacity="0"
     inkscape:pageshadow="2"
     inkscape:window-width="1135"
     inkscape:window-height="876"
     id="namedview4512"
     showgrid="true"
     inkscape:zoom="6.8333333"
     inkscape:cx="47.926829"
     inkscape:cy="48"
     inkscape:window-x="26"
     inkscape:window-y="38"
     inkscape:window-maximized="0"
     inkscape:current-layer="svg10"
     inkscape:document-rotation="0"
     inkscape:showpageshadow="2"
     inkscape:pagecheckerboard="0"
     inkscape:deskcolor="#d1d1d1">
    <inkscape:grid
       type="xygrid"
       id="grid5057"
       spacingx="3"
       spacingy="3"
       empspacing="2" />
  </sodipodi:namedview>
  <metadata
     id="metadata16">
    <rdf:RDF>
      <cc:Work
         rdf:about="">
        <dc:format>image/svg+xml</dc:format>
        <dc:type
           rdf:resource="http://purl.org/dc/dcmitype/StillImage" />
        <dc:title />
      </cc:Work>
    </rdf:RDF>
  </metadata>
  <defs
     id="defs14" />
  <path
     style="color:#000000;fill:#808080;stroke-linecap:round;stroke-linejoin:round;-inkscape-stroke:none"
     d="m 20.824219,60.005146 a 3,3 0 0 0 -2.066407,1.001953 3,3 0 0 0 0.25,4.234376 l 27,23.999999 a 3.0003,3.0003 0 0 0 3.984375,0 l 27,-23.999999 a 3,3 0 0 0 0.25,-4.234375 3,3 0 0 0 -4.234375,-0.25 L 48,82.985615 22.992187,60.757099 a 3,3 0 0 0 -2.167968,-0.751953 z"
     id="path396" />
  <path
     style="color:#000000;fill:#808080;stroke-linecap:round;stroke-linejoin:round;-inkscape-stroke:none"
     d="m 20.824219,33.005146 a 3,3 0 0 0 -2.066407,1.001953 3,3 0 0 0 0.25,4.234376 l 27,23.999999 a 3.0003,3.0003 0 0 0 3.984375,0 l 27,-23.999999 a 3,3 0 0 0 0.25,-4.234375 3,3 0 0 0 -4.234375,-0.25 L 48,55.985615 22.992187,33.757099 a 3,3 0 0 0 -2.167968,-0.751953 z"
     id="path396-4" />
  <path
     style="color:#000000;fill:#808080;stroke-linecap:round;stroke-linejoin:round;-inkscape-stroke:none"
     d="m 20.824219,6.0051456 a 3,3 0 0 0 -2.066407,1.001953 3,3 0 0 0 0.25,4.2343764 l 27,23.999999 a 3.0003,3.0003 0 0 0 3.984375,0 l 27,-23.999999 a 3,3 0 0 0 0.25,-4.2343754 3,3 0 0 0 -4.234375,-0.25 L 48,28.985615 22.992187,6.7570986 a 3,3 0 0 0 -2.167968,-0.751953 z"
     id="path396-2" />
</svg>
