<?xml version="1.0" encoding="UTF-8" standalone="no"?>
<svg
   width="96"
   height="96"
   viewBox="0 0 96 96"
   version="1.1"
   id="svg10"
   sodipodi:docname="new-empty-group.svg"
   inkscape:version="1.2.2 (b0a84865, 2022-12-01)"
   xmlns:inkscape="http://www.inkscape.org/namespaces/inkscape"
   xmlns:sodipodi="http://sodipodi.sourceforge.net/DTD/sodipodi-0.dtd"
   xmlns="http://www.w3.org/2000/svg"
   xmlns:svg="http://www.w3.org/2000/svg"
   xmlns:rdf="http://www.w3.org/1999/02/22-rdf-syntax-ns#"
   xmlns:cc="http://creativecommons.org/ns#"
   xmlns:dc="http://purl.org/dc/elements/1.1/">
  <sodipodi:namedview
     pagecolor="#ffffff"
     bordercolor="#666666"
     borderopacity="1"
     objecttolerance="10"
     gridtolerance="10"
     guidetolerance="10"
     inkscape:pageopacity="0"
     inkscape:pageshadow="2"
     inkscape:window-width="1339"
     inkscape:window-height="1028"
     id="namedview5971"
     showgrid="true"
     inkscape:zoom="8.4166667"
     inkscape:cx="48"
     inkscape:cy="48"
     inkscape:window-x="0"
     inkscape:window-y="38"
     inkscape:window-maximized="0"
     inkscape:current-layer="svg10"
     inkscape:measure-start="18,93"
     inkscape:measure-end="27,93"
     inkscape:showpageshadow="2"
     inkscape:pagecheckerboard="0"
     inkscape:deskcolor="#d1d1d1">
    <inkscape:grid
       type="xygrid"
       id="grid6516"
       dotted="false"
       empspacing="2"
       spacingy="3"
       spacingx="3" />
  </sodipodi:namedview>
  <metadata
     id="metadata16">
    <rdf:RDF>
      <cc:Work
         rdf:about="">
        <dc:format>image/svg+xml</dc:format>
        <dc:type
           rdf:resource="http://purl.org/dc/dcmitype/StillImage" />
        <dc:title />
      </cc:Work>
    </rdf:RDF>
  </metadata>
  <defs
     id="defs14" />
  <path
     d="M 45,39 V 50.999519 L 33,51 c 0,0 -3,0 -3,3 0,3 3,3 3,3 l 12,-4.81e-4 V 69 c 0,2.072846 1.5,3.035803 3,3 1.5,-0.0358 3,-1.070366 3,-3 V 56.999519 L 63,57 c 0,0 3,0 3,-3 0,-3 -3,-3 -3,-3 L 51,50.999519 V 39 c 0,0 0,-3 -3,-3 -3,0 -3,3 -3,3 z"
     id="path815"
     inkscape:connector-curvature="0"
     sodipodi:nodetypes="cccscccscccscccsc"
     fill="context-fill"
     style="fill:#808080;fill-opacity:1" />
  <path
     id="path890"
     mask="none"
     style="color:#000000;font-style:normal;font-variant:normal;font-weight:normal;font-stretch:normal;font-size:medium;line-height:normal;font-family:sans-serif;font-variant-ligatures:normal;font-variant-position:normal;font-variant-caps:normal;font-variant-numeric:normal;font-variant-alternates:normal;font-variant-east-asian:normal;font-feature-settings:normal;font-variation-settings:normal;text-indent:0;text-align:start;text-decoration:none;text-decoration-line:none;text-decoration-style:solid;text-decoration-color:#000000;letter-spacing:normal;word-spacing:normal;text-transform:none;writing-mode:lr-tb;direction:ltr;text-orientation:mixed;dominant-baseline:auto;baseline-shift:baseline;text-anchor:start;white-space:normal;shape-padding:0;shape-margin:0;inline-size:0;clip-rule:nonzero;display:inline;overflow:visible;visibility:visible;isolation:auto;mix-blend-mode:normal;color-interpolation:sRGB;color-interpolation-filters:linearRGB;solid-color:#000000;solid-opacity:1;vector-effect:none;fill:#808080;fill-opacity:1;fill-rule:nonzero;stroke:none;stroke-width:12;stroke-linecap:round;stroke-linejoin:miter;stroke-miterlimit:4;stroke-dasharray:none;stroke-dashoffset:0;stroke-opacity:1;color-rendering:auto;image-rendering:auto;shape-rendering:auto;text-rendering:auto;enable-background:accumulate;stop-color:#000000"
     d="M 15,12 C 9.000006,12 6,15.000009 6,24 v 45 c 0,11.999988 6.000012,18 18,18 h 48.000004 c 11.99998,0 18,-6.000012 18,-18 V 39 c 0,-11.999988 -6.00002,-18 -18,-18 H 57 C 51,21 44.999994,12 39,12 Z m 39,15 h 18.000004 c 9,0 12,3 12,12 v 33 c 0,5.999994 -6.00001,9 -12,9 H 24 C 18.000006,81 12,77.999994 12,72 V 24 c 0,-2.999997 3.000003,-6 6,-6 h 18 c 5.999994,0 12,9 18,9 z"
     sodipodi:nodetypes="sssssssszsszsssssssssz" />
</svg>
