<?xml version="1.0" encoding="UTF-8" standalone="no"?>
<svg
   width="96"
   height="96"
   viewBox="0 0 96 96"
   version="1.1"
   id="svg10"
   sodipodi:docname="pop-out.svg"
   inkscape:version="1.2.2 (b0a84865, 2022-12-01)"
   xmlns:inkscape="http://www.inkscape.org/namespaces/inkscape"
   xmlns:sodipodi="http://sodipodi.sourceforge.net/DTD/sodipodi-0.dtd"
   xmlns="http://www.w3.org/2000/svg"
   xmlns:svg="http://www.w3.org/2000/svg"
   xmlns:rdf="http://www.w3.org/1999/02/22-rdf-syntax-ns#"
   xmlns:cc="http://creativecommons.org/ns#"
   xmlns:dc="http://purl.org/dc/elements/1.1/">
  <sodipodi:namedview
     pagecolor="#ffffff"
     bordercolor="#666666"
     borderopacity="1"
     objecttolerance="10"
     gridtolerance="10"
     guidetolerance="10"
     inkscape:pageopacity="0"
     inkscape:pageshadow="2"
     inkscape:window-width="1728"
     inkscape:window-height="1051"
     id="namedview5971"
     showgrid="true"
     inkscape:zoom="8.65625"
     inkscape:cx="48"
     inkscape:cy="48"
     inkscape:window-x="0"
     inkscape:window-y="38"
     inkscape:window-maximized="1"
     inkscape:current-layer="svg10"
     inkscape:showpageshadow="2"
     inkscape:pagecheckerboard="0"
     inkscape:deskcolor="#d1d1d1">
    <inkscape:grid
       type="xygrid"
       id="grid6516"
       dotted="false"
       empspacing="2"
       spacingy="3"
       spacingx="3" />
  </sodipodi:namedview>
  <metadata
     id="metadata16">
    <rdf:RDF>
      <cc:Work
         rdf:about="">
        <dc:format>image/svg+xml</dc:format>
        <dc:type
           rdf:resource="http://purl.org/dc/dcmitype/StillImage" />
      </cc:Work>
    </rdf:RDF>
  </metadata>
  <defs
     id="defs14" />
  <path
     id="path10"
     d="m 12,60 v 6 c 0,12 9,24 21,24 H 69 C 81,90 90,78 90,66 V 36 C 90,24 81,12 69,12 h -9 c 0,0 -6,0 -6,3 0,3 6,3 6,3 h 9 c 9,0 15,9 15,18 v 30 c 0,9 -6,18 -15,18 H 33 C 24,84 18,75 18,66 v -6 c 0,0 0,-6 -3,-6 -3,0 -3,6 -3,6 z"
     inkscape:connector-curvature="0"
     sodipodi:nodetypes="csssssscscsssssscsc"
     fill="context-fill"
     style="fill:#808080;fill-opacity:1" />
  <g
     id="path69581"
     style="stroke:none;stroke-opacity:1;fill:#808080;fill-opacity:1" />
  <path
     style="color:#000000;fill:#808080;stroke-linecap:round;stroke-linejoin:round;-inkscape-stroke:none"
     d="M 44.313636,5.0364221 C 44.854667,4.4528251 45.141654,3.678175 45.111439,2.882946 45.047999,1.2278 43.655172,-0.062743 42,0 H 6 C 3,0 0,3 0,6 l 0.020373,35.52154 c -0.131765,1.651112 1.099526,3.096585 2.750583,3.229043 C 4.422068,44.882348 5.867541,43.651057 6,42 L 5.9743,9.714541 41.6817,45.746318 c 0,0 4.153167,4.330266 6.3183,2.253682 2.165133,-2.076583 -1.988034,-6.406849 -1.988034,-6.406849 L 10.631317,6.051497 42.228492,5.9943851 c 0.794533,-0.03038 1.544508,-0.374938 2.085144,-0.957963 z"
     id="path396"
     sodipodi:nodetypes="ccccccccccscccc" />
</svg>
