<?xml version="1.0" encoding="UTF-8" standalone="no"?>
<svg
   width="96"
   height="96"
   viewBox="0 0 96 96"
   version="1.1"
   id="svg10"
   sodipodi:docname="pop-in.svg"
   inkscape:version="1.2.2 (b0a84865, 2022-12-01)"
   xmlns:inkscape="http://www.inkscape.org/namespaces/inkscape"
   xmlns:sodipodi="http://sodipodi.sourceforge.net/DTD/sodipodi-0.dtd"
   xmlns="http://www.w3.org/2000/svg"
   xmlns:svg="http://www.w3.org/2000/svg"
   xmlns:rdf="http://www.w3.org/1999/02/22-rdf-syntax-ns#"
   xmlns:cc="http://creativecommons.org/ns#"
   xmlns:dc="http://purl.org/dc/elements/1.1/">
  <sodipodi:namedview
     pagecolor="#ffffff"
     bordercolor="#666666"
     borderopacity="1"
     objecttolerance="10"
     gridtolerance="10"
     guidetolerance="10"
     inkscape:pageopacity="0"
     inkscape:pageshadow="2"
     inkscape:window-width="1728"
     inkscape:window-height="1051"
     id="namedview5971"
     showgrid="true"
     inkscape:zoom="8.65625"
     inkscape:cx="48"
     inkscape:cy="48"
     inkscape:window-x="0"
     inkscape:window-y="38"
     inkscape:window-maximized="1"
     inkscape:current-layer="svg10"
     inkscape:showpageshadow="2"
     inkscape:pagecheckerboard="0"
     inkscape:deskcolor="#d1d1d1">
    <inkscape:grid
       type="xygrid"
       id="grid6516"
       dotted="false"
       empspacing="2"
       spacingy="3"
       spacingx="3" />
  </sodipodi:namedview>
  <metadata
     id="metadata16">
    <rdf:RDF>
      <cc:Work
         rdf:about="">
        <dc:format>image/svg+xml</dc:format>
        <dc:type
           rdf:resource="http://purl.org/dc/dcmitype/StillImage" />
      </cc:Work>
    </rdf:RDF>
  </metadata>
  <defs
     id="defs14" />
  <path
     id="path10"
     d="m 6,48 v 18 c 0,12 9,24 21,24 H 69 C 81,90 90,78 90,66 V 30 C 90,18 81,6 69,6 H 48 c 0,0 -6,0 -6,3 0,3 6,3 6,3 h 21 c 9,0 15,9 15,18 v 36 c 0,9 -6,18 -15,18 H 27 C 18,84 12,75 12,66 V 48 c 0,0 0,-6 -3,-6 -3,0 -3,6 -3,6 z"
     inkscape:connector-curvature="0"
     sodipodi:nodetypes="csssssscscsssssscsc"
     fill="context-fill"
     style="fill:#808080;fill-opacity:1" />
  <g
     id="path69581"
     style="stroke:none;stroke-opacity:1;fill:#808080;fill-opacity:1" />
  <path
     style="color:#000000;fill:#808080;stroke-linecap:round;stroke-linejoin:round;-inkscape-stroke:none"
     d="m 24.686364,54.963577 c -0.541031,0.583597 -0.828018,1.358248 -0.797803,2.153477 C 23.952001,58.7722 25.344828,60.062743 27,60 h 27 c 3,0 6,-3 6,-6 L 59.97963,27.47846 C 60.111395,25.827348 58.880104,24.381875 57.229047,24.249417 55.577932,24.117652 54.132459,25.348943 54,27 L 54.0257,50.285459 18.3183,14.253682 c 0,0 -4.153167,-4.330266 -6.3183,-2.253682 -2.165133,2.076583 1.988034,6.406849 1.988034,6.406849 l 35.380649,35.541654 -22.597175,0.05711 c -0.794533,0.03038 -1.544508,0.374938 -2.085144,0.957964 z"
     id="path396"
     sodipodi:nodetypes="ccccccccccscccc" />
</svg>
