<?xml version="1.0" encoding="UTF-8" standalone="no"?>
<svg
   id="svg10"
   version="1.1"
   viewBox="0 0 96 96"
   height="96"
   width="96"
   sodipodi:docname="rename.svg"
   inkscape:version="1.2.2 (b0a84865, 2022-12-01)"
   inkscape:export-filename="/Users/des/src/tab-stash/dist/icons/logo-64.png"
   inkscape:export-xdpi="64"
   inkscape:export-ydpi="64"
   xmlns:inkscape="http://www.inkscape.org/namespaces/inkscape"
   xmlns:sodipodi="http://sodipodi.sourceforge.net/DTD/sodipodi-0.dtd"
   xmlns="http://www.w3.org/2000/svg"
   xmlns:svg="http://www.w3.org/2000/svg"
   xmlns:rdf="http://www.w3.org/1999/02/22-rdf-syntax-ns#"
   xmlns:cc="http://creativecommons.org/ns#"
   xmlns:dc="http://purl.org/dc/elements/1.1/">
  <sodipodi:namedview
     pagecolor="#ffffff"
     bordercolor="#666666"
     borderopacity="1"
     objecttolerance="10"
     gridtolerance="10"
     guidetolerance="10"
     inkscape:pageopacity="0"
     inkscape:pageshadow="2"
     inkscape:window-width="1504"
     inkscape:window-height="1051"
     id="namedview9"
     showgrid="true"
     inkscape:zoom="8.65625"
     inkscape:cx="48.115523"
     inkscape:cy="48"
     inkscape:window-x="167"
     inkscape:window-y="38"
     inkscape:window-maximized="0"
     inkscape:current-layer="svg10"
     inkscape:pagecheckerboard="0"
     inkscape:snap-grids="true"
     inkscape:snap-to-guides="false"
     inkscape:showpageshadow="2"
     inkscape:deskcolor="#d1d1d1">
    <inkscape:grid
       type="xygrid"
       id="grid817"
       empspacing="2"
       spacingx="3"
       spacingy="3" />
  </sodipodi:namedview>
  <metadata
     id="metadata16">
    <rdf:RDF>
      <cc:Work
         rdf:about="">
        <dc:format>image/svg+xml</dc:format>
        <dc:type
           rdf:resource="http://purl.org/dc/dcmitype/StillImage" />
      </cc:Work>
    </rdf:RDF>
  </metadata>
  <defs
     id="defs14" />
  <path
     id="rect480"
     style="fill:#808080"
     d="M 66,6 C 66,6 14.999997,54.000006 12,60 9.000003,65.999994 6,81 6,81 c 0,2.999997 6,9 9,9 0,0 15.000006,-3.000003 21,-6 C 41.999994,81.000003 90,30 90,30 90,18.000012 77.999988,6 66,6 Z M 54,24 66,12 c 9,0 18,9 18,18 L 72,42 C 72,33 63,24 54,24 Z m -3,3 c 8.999991,0 18,9.000009 18,18 L 36,78 C 15,90 6,81 18,60 Z"
     sodipodi:nodetypes="csccscccccccccccc" />
</svg>
