<?xml version="1.0" encoding="UTF-8" standalone="no"?>
<svg
   width="96"
   height="96"
   viewBox="0 0 96 96"
   version="1.1"
   id="svg10"
   sodipodi:docname="restore.svg"
   inkscape:version="1.2.2 (b0a84865, 2022-12-01)"
   xmlns:inkscape="http://www.inkscape.org/namespaces/inkscape"
   xmlns:sodipodi="http://sodipodi.sourceforge.net/DTD/sodipodi-0.dtd"
   xmlns="http://www.w3.org/2000/svg"
   xmlns:svg="http://www.w3.org/2000/svg"
   xmlns:rdf="http://www.w3.org/1999/02/22-rdf-syntax-ns#"
   xmlns:cc="http://creativecommons.org/ns#"
   xmlns:dc="http://purl.org/dc/elements/1.1/">
  <sodipodi:namedview
     pagecolor="#ffffff"
     bordercolor="#666666"
     borderopacity="1"
     objecttolerance="10"
     gridtolerance="10"
     guidetolerance="10"
     inkscape:pageopacity="0"
     inkscape:pageshadow="2"
     inkscape:window-width="1290"
     inkscape:window-height="918"
     id="namedview5971"
     showgrid="true"
     inkscape:zoom="7.2708333"
     inkscape:cx="48"
     inkscape:cy="48"
     inkscape:window-x="102"
     inkscape:window-y="82"
     inkscape:window-maximized="0"
     inkscape:current-layer="svg10"
     inkscape:showpageshadow="2"
     inkscape:pagecheckerboard="0"
     inkscape:deskcolor="#d1d1d1">
    <inkscape:grid
       type="xygrid"
       id="grid6516"
       dotted="false"
       empspacing="2"
       spacingy="3"
       spacingx="3" />
  </sodipodi:namedview>
  <metadata
     id="metadata16">
    <rdf:RDF>
      <cc:Work
         rdf:about="">
        <dc:format>image/svg+xml</dc:format>
        <dc:type
           rdf:resource="http://purl.org/dc/dcmitype/StillImage" />
        <dc:title />
      </cc:Work>
    </rdf:RDF>
  </metadata>
  <defs
     id="defs14" />
  <path
     style="color:#000000;fill:#808080;stroke-linecap:round;stroke-linejoin:round;-inkscape-stroke:none"
     d="m 20.82433,77.994196 a 3,3 0 0 1 -2.066407,-1.001953 3,3 0 0 1 0.25,-4.234376 l 27,-23.999999 a 3.0003,3.0003 0 0 1 3.984375,0 l 27,23.999999 a 3,3 0 0 1 0.25,4.234375 3,3 0 0 1 -4.234375,0.25 L 48.000111,55.013727 22.992298,77.242243 a 3,3 0 0 1 -2.167968,0.751953 z"
     id="path396" />
  <path
     style="color:#000000;fill:#808080;stroke-linecap:round;stroke-linejoin:round;-inkscape-stroke:none"
     d="m 20.82433,95.994196 a 3,3 0 0 1 -2.066407,-1.001953 3,3 0 0 1 0.25,-4.234376 l 27,-23.999999 a 3.0003,3.0003 0 0 1 3.984375,0 l 27,23.999999 a 3,3 0 0 1 0.25,4.234375 3,3 0 0 1 -4.234375,0.25 L 48.000111,73.013727 22.992298,95.242243 a 3,3 0 0 1 -2.167968,0.751953 z"
     id="path396-3" />
  <path
     style="color:#000000;opacity:0.994;fill:#808080;fill-opacity:1;stroke-linecap:round;stroke-linejoin:round;-inkscape-stroke:none"
     d="M 30,6 C 24,6 18,12 18,18 v 6 c 0,3 -3,6 -6,6 -6,0 -6,6 0,6 h 72 c 6,0 6,-6 0,-6 -3,0 -6,-3 -6,-6 V 18 C 78,12 72,6 66,6 Z m -6,12 c 0,-3 3,-6 6,-6 h 36 c 3,0 6,3 6,6 v 6 c 0,3 -3,6 -6,6 l -36,1e-6 C 27,30 24,27 24,24 c 0,-3 0.02717,-1.109045 0,-6 z"
     id="rect480"
     sodipodi:nodetypes="cccccccccccccccccccc" />
</svg>
