<?xml version="1.0" encoding="UTF-8" standalone="no"?>
<svg
   width="96"
   height="96"
   viewBox="0 0 96 96"
   version="1.1"
   id="svg10"
   sodipodi:docname="restore-del.svg"
   inkscape:version="1.2.2 (b0a84865, 2022-12-01)"
   xmlns:inkscape="http://www.inkscape.org/namespaces/inkscape"
   xmlns:sodipodi="http://sodipodi.sourceforge.net/DTD/sodipodi-0.dtd"
   xmlns="http://www.w3.org/2000/svg"
   xmlns:svg="http://www.w3.org/2000/svg"
   xmlns:rdf="http://www.w3.org/1999/02/22-rdf-syntax-ns#"
   xmlns:cc="http://creativecommons.org/ns#"
   xmlns:dc="http://purl.org/dc/elements/1.1/">
  <sodipodi:namedview
     pagecolor="#ffffff"
     bordercolor="#666666"
     borderopacity="1"
     objecttolerance="10"
     gridtolerance="10"
     guidetolerance="10"
     inkscape:pageopacity="0"
     inkscape:pageshadow="2"
     inkscape:window-width="1422"
     inkscape:window-height="823"
     id="namedview5971"
     showgrid="true"
     inkscape:zoom="6.28125"
     inkscape:cx="22.686567"
     inkscape:cy="48"
     inkscape:window-x="306"
     inkscape:window-y="238"
     inkscape:window-maximized="0"
     inkscape:current-layer="svg10"
     inkscape:showpageshadow="2"
     inkscape:pagecheckerboard="0"
     inkscape:deskcolor="#d1d1d1">
    <inkscape:grid
       type="xygrid"
       id="grid6516"
       dotted="false"
       empspacing="2"
       spacingy="3"
       spacingx="3" />
  </sodipodi:namedview>
  <metadata
     id="metadata16">
    <rdf:RDF>
      <cc:Work
         rdf:about="">
        <dc:format>image/svg+xml</dc:format>
        <dc:type
           rdf:resource="http://purl.org/dc/dcmitype/StillImage" />
        <dc:title />
      </cc:Work>
    </rdf:RDF>
  </metadata>
  <defs
     id="defs14" />
  <path
     d="m 57,81 a 9,9 0 0 1 -9,9 9,9 0 0 1 -9,-9 9,9 0 0 1 9,-9 9,9 0 0 1 9,9 z"
     id="path2034"
     inkscape:connector-curvature="0"
     style="fill:#808080;fill-opacity:1" />
  <path
     style="color:#000000;fill:#808080;stroke-linecap:round;stroke-linejoin:round;-inkscape-stroke:none"
     d="m 20.824219,77.994196 a 3,3 0 0 1 -2.066407,-1.001953 3,3 0 0 1 0.25,-4.234376 l 27,-23.999999 a 3.0003,3.0003 0 0 1 3.984375,0 l 27,23.999999 a 3,3 0 0 1 0.25,4.234375 3,3 0 0 1 -4.234375,0.25 L 48,55.013727 22.992187,77.242243 a 3,3 0 0 1 -2.167968,0.751953 z"
     id="path396" />
  <path
     style="color:#000000;opacity:0.994;fill:#808080;fill-opacity:1;stroke-linecap:round;stroke-linejoin:round;-inkscape-stroke:none"
     d="m 36,6 c -9,0 -18,9 -18,18 0,3 -3,6 -6,6 -6,0 -6,6 0,6 h 72 c 6,0 6,-6 0,-6 -3,0 -6,-3 -6,-6 C 78,15 69,6 60,6 Z m 0,6 h 24 c 6,0 12,6 12,12 0,3 -3,6 -6,6 l -36,1e-6 C 27,30 24,27 24,24 24,18 30,12 36,12 Z"
     id="rect480-4"
     sodipodi:nodetypes="cccccccccccccccc" />
</svg>
