<?xml version="1.0" encoding="UTF-8" standalone="no"?>
<svg
   width="96"
   height="96"
   viewBox="0 0 96 96"
   version="1.1"
   id="svg10"
   sodipodi:docname="stash.svg"
   inkscape:version="1.2.2 (b0a84865, 2022-12-01)"
   xmlns:inkscape="http://www.inkscape.org/namespaces/inkscape"
   xmlns:sodipodi="http://sodipodi.sourceforge.net/DTD/sodipodi-0.dtd"
   xmlns="http://www.w3.org/2000/svg"
   xmlns:svg="http://www.w3.org/2000/svg"
   xmlns:rdf="http://www.w3.org/1999/02/22-rdf-syntax-ns#"
   xmlns:cc="http://creativecommons.org/ns#"
   xmlns:dc="http://purl.org/dc/elements/1.1/">
  <sodipodi:namedview
     pagecolor="#ffffff"
     bordercolor="#666666"
     borderopacity="1"
     objecttolerance="10"
     gridtolerance="10"
     guidetolerance="10"
     inkscape:pageopacity="0"
     inkscape:pageshadow="2"
     inkscape:window-width="1284"
     inkscape:window-height="926"
     id="namedview5971"
     showgrid="true"
     inkscape:zoom="7.3541667"
     inkscape:cx="26.311615"
     inkscape:cy="48"
     inkscape:window-x="400"
     inkscape:window-y="116"
     inkscape:window-maximized="0"
     inkscape:current-layer="svg10"
     inkscape:showpageshadow="2"
     inkscape:pagecheckerboard="0"
     inkscape:deskcolor="#d1d1d1">
    <inkscape:grid
       type="xygrid"
       id="grid6516"
       dotted="false"
       empspacing="2"
       spacingy="3"
       spacingx="3" />
  </sodipodi:namedview>
  <metadata
     id="metadata16">
    <rdf:RDF>
      <cc:Work
         rdf:about="">
        <dc:format>image/svg+xml</dc:format>
        <dc:type
           rdf:resource="http://purl.org/dc/dcmitype/StillImage" />
        <dc:title />
      </cc:Work>
    </rdf:RDF>
  </metadata>
  <defs
     id="defs14" />
  <path
     id="path8"
     d="m 27,60 c -3.999998,0 -3.999998,6 0,6 h 42 c 4,0 4,-6 0,-6 z"
     inkscape:connector-curvature="0"
     fill="context-fill"
     style="fill:#808080;fill-opacity:1"
     sodipodi:nodetypes="sssss" />
  <path
     id="path10"
     d="m 6,54 v 18 c 0,12 6,18 18,18 H 72 C 84,90 90,84 90,72 V 54 c 0,0 0,-6 -3,-6 -3,0 -3,6 -3,6 v 18 c 0,6 -6,12 -12,12 H 24 C 18,84 12,78 12,72 V 54 c 0,0 0,-6 -3,-6 -3,0 -3,6 -3,6 z"
     inkscape:connector-curvature="0"
     sodipodi:nodetypes="csssscscsssscsc"
     fill="context-fill"
     style="fill:#808080;fill-opacity:1" />
  <path
     d="m 33,72 c -3.999998,0 -3.999998,6 0,6 h 30 c 4,0 4,-6 0,-6 z"
     id="path3702"
     inkscape:connector-curvature="0"
     fill="context-fill"
     style="fill:#808080;fill-opacity:1"
     sodipodi:nodetypes="sssss" />
  <path
     d="m 21,48 c -3.999998,0 -3.999998,6 0,6 h 54 c 4,0 4,-6 0,-6 z"
     id="path832"
     inkscape:connector-curvature="0"
     fill="context-fill"
     style="fill:#808080;fill-opacity:1"
     sodipodi:nodetypes="sssss" />
  <g
     id="path69581"
     style="stroke:none;stroke-opacity:1;fill:#808080;fill-opacity:1" />
  <path
     style="color:#000000;fill:#808080;stroke-linecap:round;stroke-linejoin:round;-inkscape-stroke:none"
     d="m 20.824219,6.0058594 a 3,3 0 0 0 -2.066407,1.0019531 3,3 0 0 0 0.25,4.2343755 l 27,23.999999 a 3.0003,3.0003 0 0 0 3.984375,0 l 27,-23.999999 a 3,3 0 0 0 0.25,-4.2343755 3,3 0 0 0 -4.234375,-0.25 L 48,28.986328 22.992187,6.7578125 A 3,3 0 0 0 20.824219,6.0058594 Z"
     id="path396" />
</svg>
