<?xml version="1.0" encoding="UTF-8" standalone="no"?>
<svg
   xmlns:dc="http://purl.org/dc/elements/1.1/"
   xmlns:cc="http://creativecommons.org/ns#"
   xmlns:rdf="http://www.w3.org/1999/02/22-rdf-syntax-ns#"
   xmlns:svg="http://www.w3.org/2000/svg"
   xmlns="http://www.w3.org/2000/svg"
   xmlns:sodipodi="http://sodipodi.sourceforge.net/DTD/sodipodi-0.dtd"
   xmlns:inkscape="http://www.inkscape.org/namespaces/inkscape"
   id="svg10"
   version="1.1"
   viewBox="0 0 96 96"
   height="96"
   width="96"
   sodipodi:docname="logo-dark.svg"
   inkscape:version="0.92.2 5c3e80d, 2017-08-06"
   inkscape:export-filename="/Users/des/src/tab-stash/dist/icons/logo-64.png"
   inkscape:export-xdpi="64"
   inkscape:export-ydpi="64">
  <sodipodi:namedview
     pagecolor="#ffffff"
     bordercolor="#666666"
     borderopacity="1"
     objecttolerance="10"
     gridtolerance="10"
     guidetolerance="10"
     inkscape:pageopacity="0"
     inkscape:pageshadow="2"
     inkscape:window-width="1466"
     inkscape:window-height="977"
     id="namedview9"
     showgrid="true"
     inkscape:zoom="8.0208333"
     inkscape:cx="25.558441"
     inkscape:cy="48"
     inkscape:window-x="0"
     inkscape:window-y="0"
     inkscape:window-maximized="0"
     inkscape:current-layer="svg10">
    <inkscape:grid
       type="xygrid"
       id="grid817"
       empspacing="2"
       spacingx="3"
       spacingy="3" />
  </sodipodi:namedview>
  <metadata
     id="metadata16">
    <rdf:RDF>
      <cc:Work
         rdf:about="">
        <dc:format>image/svg+xml</dc:format>
        <dc:type
           rdf:resource="http://purl.org/dc/dcmitype/StillImage" />
        <dc:title></dc:title>
      </cc:Work>
    </rdf:RDF>
  </metadata>
  <defs
     id="defs14" />
  <path
     d="M 74.25,24 H 70.5 V 6 A 7.5,6 0 0 0 63,0 H 33 a 7.5,6 0 0 0 -7.5,6 v 18 h -3.75 a 3.75,3 0 0 0 0,6 h 52.5 a 3.75,3 0 1 0 0,-6 z"
     id="path5"
     inkscape:connector-curvature="0"
     fill="context-fill"
     style="fill:#0c0c0d;fill-opacity:0.80000001" />
  <path
     id="path8"
     d="m 27,54 a 3,3 0 1 0 0,6 h 42 a 3,3 0 1 0 0,-6 z"
     inkscape:connector-curvature="0"
     fill="context-fill"
     style="fill:#0c0c0d;fill-opacity:0.80000001" />
  <path
     id="path10"
     d="m 6,42 v 30 c 0,12 6,18 18,18 H 72 C 84,90 90,84 90,72 V 42 c 0,0 0,-6 -6,-6 -6,0 -6,6 -6,6 V 78 H 18 V 42 c 0,0 0,-6 -6,-6 -6,0 -6,6 -6,6 z"
     inkscape:connector-curvature="0"
     sodipodi:nodetypes="csssscsccccsc"
     fill="context-fill"
     style="fill:#0c0c0d;fill-opacity:0.80000001" />
  <path
     d="m 27,66 a 3,3 0 1 0 0,6 h 42 a 3,3 0 1 0 0,-6 z"
     id="path3702"
     inkscape:connector-curvature="0"
     fill="context-fill"
     style="fill:#0c0c0d;fill-opacity:0.80000001" />
  <path
     d="m 27,42 a 3,3 0 1 0 0,6 h 42 a 3,3 0 1 0 0,-6 z"
     id="path832"
     inkscape:connector-curvature="0"
     fill="context-fill"
     style="fill:#0c0c0d;fill-opacity:0.80000001" />
</svg>
