<?xml version="1.0" encoding="UTF-8" standalone="no"?>
<svg
   xmlns:dc="http://purl.org/dc/elements/1.1/"
   xmlns:cc="http://creativecommons.org/ns#"
   xmlns:rdf="http://www.w3.org/1999/02/22-rdf-syntax-ns#"
   xmlns:svg="http://www.w3.org/2000/svg"
   xmlns="http://www.w3.org/2000/svg"
   xmlns:sodipodi="http://sodipodi.sourceforge.net/DTD/sodipodi-0.dtd"
   xmlns:inkscape="http://www.inkscape.org/namespaces/inkscape"
   id="svg10"
   version="1.1"
   viewBox="0 0 96 96"
   height="96"
   width="96"
   sodipodi:docname="logo.svg"
   inkscape:version="0.92.2 5c3e80d, 2017-08-06">
  <sodipodi:namedview
     pagecolor="#ffffff"
     bordercolor="#666666"
     borderopacity="1"
     objecttolerance="10"
     gridtolerance="10"
     guidetolerance="10"
     inkscape:pageopacity="0"
     inkscape:pageshadow="2"
     inkscape:window-width="1327"
     inkscape:window-height="947"
     id="namedview9"
     showgrid="true"
     inkscape:zoom="8.0208333"
     inkscape:cx="48"
     inkscape:cy="48"
     inkscape:window-x="593"
     inkscape:window-y="294"
     inkscape:window-maximized="0"
     inkscape:current-layer="svg10">
    <inkscape:grid
       type="xygrid"
       id="grid817"
       empspacing="2"
       spacingx="3"
       spacingy="3" />
  </sodipodi:namedview>
  <metadata
     id="metadata16">
    <rdf:RDF>
      <cc:Work
         rdf:about="">
        <dc:format>image/svg+xml</dc:format>
        <dc:type
           rdf:resource="http://purl.org/dc/dcmitype/StillImage" />
        <dc:title />
      </cc:Work>
    </rdf:RDF>
  </metadata>
  <defs
     id="defs14" />
  <path
     d="M 74.25,30 H 70.5 V 12 A 7.5,6 0 0 0 63,6 H 33 a 7.5,6 0 0 0 -7.5,6 v 18 h -3.75 a 3.75,3 0 0 0 0,6 h 52.5 a 3.75,3 0 1 0 0,-6 z"
     id="path5"
     style="fill:#0c0c0d;fill-opacity:0.8;stroke-width:3.35410261"
     inkscape:connector-curvature="0" />
  <path
     id="path8"
     d="m 27,60 a 3,3 0 1 0 0,6 h 42 a 3,3 0 1 0 0,-6 z"
     style="fill:#0c0c0d;fill-opacity:0.8;stroke-width:6"
     inkscape:connector-curvature="0" />
  <path
     id="path10"
     d="m 6,48 v 30 c 0,12 6,18 18,18 H 72 C 84,96 90,90 90,78 V 48 c 0,0 0,-6 -6,-6 -6,0 -6,6 -6,6 V 84 H 18 V 48 c 0,0 0,-6 -6,-6 -6,0 -6,6 -6,6 z"
     style="fill:#0c0c0d;fill-opacity:0.8;stroke-width:6"
     inkscape:connector-curvature="0"
     sodipodi:nodetypes="csssscsccccsc" />
  <path
     d="m 27,72 a 3,3 0 1 0 0,6 h 42 a 3,3 0 1 0 0,-6 z"
     id="path3702"
     style="fill:#0c0c0d;fill-opacity:0.8;stroke-width:6"
     inkscape:connector-curvature="0" />
  <path
     style="fill:#0c0c0d;fill-opacity:0.8;stroke-width:6"
     d="m 27,48 a 3,3 0 1 0 0,6 h 42 a 3,3 0 1 0 0,-6 z"
     id="path832"
     inkscape:connector-curvature="0" />
</svg>
