<?xml version="1.0" encoding="UTF-8" standalone="no"?>
<svg
   xmlns:dc="http://purl.org/dc/elements/1.1/"
   xmlns:cc="http://creativecommons.org/ns#"
   xmlns:rdf="http://www.w3.org/1999/02/22-rdf-syntax-ns#"
   xmlns:svg="http://www.w3.org/2000/svg"
   xmlns="http://www.w3.org/2000/svg"
   xmlns:sodipodi="http://sodipodi.sourceforge.net/DTD/sodipodi-0.dtd"
   xmlns:inkscape="http://www.inkscape.org/namespaces/inkscape"
   width="96"
   height="96"
   viewBox="0 0 96 96"
   version="1.1"
   id="svg10"
   sodipodi:docname="restore.svg"
   inkscape:version="0.92.2 5c3e80d, 2017-08-06">
  <sodipodi:namedview
     pagecolor="#ffffff"
     bordercolor="#666666"
     borderopacity="1"
     objecttolerance="10"
     gridtolerance="10"
     guidetolerance="10"
     inkscape:pageopacity="0"
     inkscape:pageshadow="2"
     inkscape:window-width="1290"
     inkscape:window-height="918"
     id="namedview5971"
     showgrid="true"
     inkscape:zoom="7.71875"
     inkscape:cx="48"
     inkscape:cy="48"
     inkscape:window-x="402"
     inkscape:window-y="221"
     inkscape:window-maximized="0"
     inkscape:current-layer="svg10">
    <inkscape:grid
       type="xygrid"
       id="grid6516"
       dotted="false"
       empspacing="2"
       spacingy="3"
       spacingx="3" />
  </sodipodi:namedview>
  <metadata
     id="metadata16">
    <rdf:RDF>
      <cc:Work
         rdf:about="">
        <dc:format>image/svg+xml</dc:format>
        <dc:type
           rdf:resource="http://purl.org/dc/dcmitype/StillImage" />
        <dc:title />
      </cc:Work>
    </rdf:RDF>
  </metadata>
  <defs
     id="defs14" />
  <path
     d="M 74.25,30 H 70.5 V 12 A 7.5,6 0 0 0 63,6 H 33 a 7.5,6 0 0 0 -7.5,6 v 18 h -3.75 a 3.75,3 0 0 0 0,6 h 52.5 a 3.75,3 0 1 0 0,-6 z"
     id="path5"
     inkscape:connector-curvature="0"
     fill="context-fill"
     style="fill:#0c0c0d;fill-opacity:0.80000001" />
  <path
     d="M 48.076172,41.5 A 3.6935883,3.6935883 0 0 0 45.5625,42.417969 L 19.294922,65.498047 a 3.6935883,3.6935883 0 1 0 4.875,5.548828 L 48,50.109375 l 23.830078,20.9375 a 3.6935883,3.6935883 0 1 0 4.875,-5.548828 L 50.4375,42.417969 A 3.6935883,3.6935883 0 0 0 48.076172,41.5 Z"
     id="path917"
     inkscape:connector-curvature="0"
     fill="context-fill"
     style="fill:#0c0c0d;fill-opacity:0.80000001" />
  <path
     d="M 48.076172,59.5 A 3.6935883,3.6935883 0 0 0 45.5625,60.417969 L 19.294922,83.498047 a 3.6935883,3.6935883 0 1 0 4.875,5.548828 L 48,68.109375 l 23.830078,20.9375 a 3.6935883,3.6935883 0 1 0 4.875,-5.548828 L 50.4375,60.417969 A 3.6935883,3.6935883 0 0 0 48.076172,59.5 Z"
     id="path2002"
     inkscape:connector-curvature="0"
     fill="context-fill"
     style="fill:#0c0c0d;fill-opacity:0.80000001" />
</svg>
