<?xml version="1.0" encoding="UTF-8" standalone="no"?>
<svg
   xmlns:dc="http://purl.org/dc/elements/1.1/"
   xmlns:cc="http://creativecommons.org/ns#"
   xmlns:rdf="http://www.w3.org/1999/02/22-rdf-syntax-ns#"
   xmlns:svg="http://www.w3.org/2000/svg"
   xmlns="http://www.w3.org/2000/svg"
   xmlns:sodipodi="http://sodipodi.sourceforge.net/DTD/sodipodi-0.dtd"
   xmlns:inkscape="http://www.inkscape.org/namespaces/inkscape"
   width="96"
   height="96"
   viewBox="0 0 96 96"
   version="1.1"
   id="svg10"
   sodipodi:docname="stash-light.svg"
   inkscape:version="0.92.2 5c3e80d, 2017-08-06">
  <sodipodi:namedview
     pagecolor="#ffffff"
     bordercolor="#666666"
     borderopacity="1"
     objecttolerance="10"
     gridtolerance="10"
     guidetolerance="10"
     inkscape:pageopacity="0"
     inkscape:pageshadow="2"
     inkscape:window-width="1404"
     inkscape:window-height="876"
     id="namedview7118"
     showgrid="true"
     inkscape:zoom="7.28125"
     inkscape:cx="48"
     inkscape:cy="48"
     inkscape:window-x="429"
     inkscape:window-y="19"
     inkscape:window-maximized="0"
     inkscape:current-layer="svg10">
    <inkscape:grid
       type="xygrid"
       id="grid7663"
       spacingx="3"
       spacingy="3"
       empspacing="2" />
  </sodipodi:namedview>
  <metadata
     id="metadata16">
    <rdf:RDF>
      <cc:Work
         rdf:about="">
        <dc:format>image/svg+xml</dc:format>
        <dc:type
           rdf:resource="http://purl.org/dc/dcmitype/StillImage" />
        <dc:title />
      </cc:Work>
    </rdf:RDF>
  </metadata>
  <defs
     id="defs14" />
  <path
     style="fill:#f9f9fa;fill-opacity:0.8;stroke-width:6"
     d="m 27,54 a 3,3 0 1 0 0,6 h 42 a 3,3 0 1 0 0,-6 z"
     id="path8"
     inkscape:connector-curvature="0" />
  <path
     style="fill:#f9f9fa;fill-opacity:0.8;stroke-width:6"
     d="m 6,42 v 30 c 0,12 6,18 18,18 H 72 C 84,90 90,84 90,72 V 42 c 0,0 0,-6 -6,-6 -6,0 -6,6 -6,6 V 78 H 18 V 42 c 0,0 0,-6 -6,-6 -6,0 -6,6 -6,6 z"
     id="path10"
     inkscape:connector-curvature="0"
     sodipodi:nodetypes="csssscsccccsc" />
  <path
     style="fill:#f9f9fa;fill-opacity:0.8;stroke-width:6"
     id="path3702"
     d="m 27,66 a 3,3 0 1 0 0,6 h 42 a 3,3 0 1 0 0,-6 z"
     inkscape:connector-curvature="0" />
  <path
     id="path832"
     d="m 27,42 a 3,3 0 1 0 0,6 h 42 a 3,3 0 1 0 0,-6 z"
     style="fill:#f9f9fa;fill-opacity:0.8;stroke-width:6"
     inkscape:connector-curvature="0" />
  <path
     id="path917"
     d="M 21.770637,3.6338683 48,27 74.229363,3.6338683"
     style="fill:none;fill-rule:evenodd;stroke:#f9f9fa;stroke-width:7.4269166;stroke-linecap:round;stroke-linejoin:round;stroke-miterlimit:6;stroke-dasharray:none;stroke-opacity:0.8"
     inkscape:connector-curvature="0" />
</svg>
