<?xml version="1.0" encoding="UTF-8" standalone="no"?>
<svg
   xmlns:dc="http://purl.org/dc/elements/1.1/"
   xmlns:cc="http://creativecommons.org/ns#"
   xmlns:rdf="http://www.w3.org/1999/02/22-rdf-syntax-ns#"
   xmlns:svg="http://www.w3.org/2000/svg"
   xmlns="http://www.w3.org/2000/svg"
   id="svg10"
   version="1.1"
   viewBox="0 0 96 96"
   height="96"
   width="96">
  <metadata
     id="metadata16">
    <rdf:RDF>
      <cc:Work
         rdf:about="">
        <dc:format>image/svg+xml</dc:format>
        <dc:type
           rdf:resource="http://purl.org/dc/dcmitype/StillImage" />
        <dc:title></dc:title>
      </cc:Work>
    </rdf:RDF>
  </metadata>
  <defs
     id="defs14" />
  <path
     id="path10"
     d="m 6,48 v 30 c 0,12 6,12 12,12 h 60 c 6,0 12,0 12,-12 V 48 c 0,0 0,-6 -6,-6 -6,0 -6,6 -6,6 V 84 H 18 V 48 c 0,0 0,-6 -6,-6 -6,0 -6,6 -6,6 z"
     style="fill:#0c0c0d;fill-opacity:0.8;stroke-width:6" />
  <path
     d="m 27,72 a 3,3 0 1 0 0,6 h 42 a 3,3 0 1 0 0,-6 z"
     id="path3702"
     style="fill:#0c0c0d;fill-opacity:0.8;stroke-width:6" />
  <path
     style="fill:none;fill-rule:evenodd;stroke:#0c0c0d;stroke-width:7.4269166;stroke-linecap:round;stroke-linejoin:round;stroke-miterlimit:6;stroke-dasharray:none;stroke-opacity:0.8"
     d="M 21.770637,9.6338683 48,33 74.229363,9.6338683"
     id="path917" />
</svg>
