<?xml version="1.0" encoding="UTF-8" standalone="no"?>
<svg
   id="svg10"
   version="1.1"
   viewBox="0 0 674.31251 128"
   height="128"
   width="674.3125"
   sodipodi:docname="logo.svg"
   inkscape:version="1.2.2 (b0a84865, 2022-12-01)"
   inkscape:export-filename="/Users/des/src/tab-stash/dist/icons/logo-64.png"
   inkscape:export-xdpi="64"
   inkscape:export-ydpi="64"
   xmlns:inkscape="http://www.inkscape.org/namespaces/inkscape"
   xmlns:sodipodi="http://sodipodi.sourceforge.net/DTD/sodipodi-0.dtd"
   xmlns="http://www.w3.org/2000/svg"
   xmlns:svg="http://www.w3.org/2000/svg"
   xmlns:rdf="http://www.w3.org/1999/02/22-rdf-syntax-ns#"
   xmlns:cc="http://creativecommons.org/ns#"
   xmlns:dc="http://purl.org/dc/elements/1.1/">
  <sodipodi:namedview
     pagecolor="#287acc"
     bordercolor="#666666"
     borderopacity="1"
     objecttolerance="10"
     gridtolerance="10"
     guidetolerance="10"
     inkscape:pageopacity="0"
     inkscape:pageshadow="2"
     inkscape:window-width="1342"
     inkscape:window-height="1051"
     id="namedview9"
     showgrid="true"
     inkscape:zoom="3.3376759"
     inkscape:cx="135.57338"
     inkscape:cy="47.787744"
     inkscape:window-x="0"
     inkscape:window-y="38"
     inkscape:window-maximized="0"
     inkscape:current-layer="svg10"
     inkscape:showpageshadow="2"
     inkscape:pagecheckerboard="0"
     inkscape:deskcolor="#d1d1d1">
    <inkscape:grid
       type="xygrid"
       id="grid817"
       empspacing="2"
       spacingx="3"
       spacingy="3"
       originx="-6.0000006"
       originy="-6" />
  </sodipodi:namedview>
  <metadata
     id="metadata16">
    <rdf:RDF>
      <cc:Work
         rdf:about="">
        <dc:format>image/svg+xml</dc:format>
        <dc:type
           rdf:resource="http://purl.org/dc/dcmitype/StillImage" />
      </cc:Work>
    </rdf:RDF>
  </metadata>
  <defs
     id="defs14" />
  <path
     id="path8"
     d="m 32,82.285714 c -6.095235,0 -6.095235,9.142857 0,9.142857 h 64 c 6.09524,0 6.09524,-9.142857 0,-9.142857 z"
     inkscape:connector-curvature="0"
     fill="context-fill"
     style="fill:#f9f9fa;fill-opacity:1;stroke-width:1.52381"
     sodipodi:nodetypes="sssss" />
  <path
     id="path10"
     d="M 0,73.142857 V 100.57143 C 0,118.85714 9.1428571,128 27.428571,128 H 100.57143 C 118.85714,128 128,118.85714 128,100.57143 V 73.142857 c 0,0 0,-9.142857 -4.57143,-9.142857 -4.57143,0 -4.57143,9.142857 -4.57143,9.142857 v 27.428573 c 0,9.14286 -9.14285,18.28571 -18.28571,18.28571 H 27.428571 c -9.142857,0 -18.2857139,-9.14285 -18.2857139,-18.28571 V 73.142857 c 0,0 0,-9.142857 -4.5714285,-9.142857 C 0,64 0,73.142857 0,73.142857 Z"
     inkscape:connector-curvature="0"
     sodipodi:nodetypes="csssscscsssscsc"
     fill="context-fill"
     style="fill:#f9f9fa;fill-opacity:1;stroke-width:1.52381" />
  <path
     d="m 41.142857,100.57143 c -6.095235,0 -6.095235,9.14286 0,9.14286 h 45.714286 c 6.095235,0 6.095235,-9.14286 0,-9.14286 z"
     id="path3702"
     inkscape:connector-curvature="0"
     fill="context-fill"
     style="fill:#f9f9fa;fill-opacity:1;stroke-width:1.52381"
     sodipodi:nodetypes="sssss" />
  <path
     d="m 22.857143,64 c -6.095235,0 -6.095235,9.142857 0,9.142857 h 82.285717 c 6.09523,0 6.09523,-9.142857 0,-9.142857 z"
     id="path832"
     inkscape:connector-curvature="0"
     fill="context-fill"
     style="fill:#f9f9fa;fill-opacity:1;stroke-width:1.52381"
     sodipodi:nodetypes="sssss" />
  <path
     style="fill:#f9f9fa;fill-opacity:1;stroke-width:1.52381"
     d="M 36.571429,0 C 27.428571,0 18.285714,9.1428571 18.285714,18.285714 v 9.142857 c 0,4.571429 -4.571428,9.142858 -9.1428569,9.142858 -9.1428571,0 -9.1428571,9.142857 0,9.142857 H 118.85714 c 9.14286,0 9.14286,-9.142857 0,-9.142857 -4.57143,0 -9.14285,-4.571429 -9.14285,-9.142858 V 18.285714 C 109.71429,9.1428571 100.57143,0 91.428571,0 Z m -9.142858,18.285714 c 0,-4.571428 4.571429,-9.1428569 9.142858,-9.1428569 h 54.857142 c 4.571429,0 9.142859,4.5714289 9.142859,9.1428569 v 9.142857 C 100.57143,32 96,36.571429 91.428571,36.571429 l -54.857142,10e-7 C 32,36.571429 27.428571,32 27.428571,27.428571 c 0,-4.571428 0.0414,-1.689973 0,-9.142857 z"
     id="rect480"
     sodipodi:nodetypes="cccccccccccccccccccc" />
  <g
     aria-label="Tab Stash"
     id="text2353"
     style="font-size:128px;font-family:'SF Pro Rounded';-inkscape-font-specification:'SF Pro Rounded, Normal';fill:#f9f9fa;stroke-width:6;stroke-linecap:round;stroke-linejoin:round;stroke-opacity:0.8">
    <path
       d="m 193.1875,126.875 c 3.4375,0 5.625,-2.25 5.625,-5.8125 v -75.125 h 24 c 3.1875,0 5.375,-2.0625 5.375,-5.0625 0,-3 -2.1875,-5.0625 -5.375,-5.0625 h -59.25 c -3.1875,0 -5.375,2.0625 -5.375,5.0625 0,3 2.1875,5.0625 5.375,5.0625 h 24 v 75.125 c 0,3.5625 2.1875,5.8125 5.625,5.8125 z"
       id="path5470" />
    <path
       d="m 239.5,127.125 c 8.75,0 17.0625,-4.875 20.9375,-12.3125 h 0.25 v 6.8125 c 0,3.25 2.125,5.5 5.1875,5.5 3,0 5.125,-2.25 5.125,-5.5 V 81.0625 C 271,68.125 261.375,59.875 246.125,59.875 c -10.5625,0 -20.0625,4.6875 -23.75,11.8125 -0.875,1.5625 -1.3125,3.125 -1.3125,4.5 0,2.9375 2,4.875 4.8125,4.875 2.0625,0 3.5,-0.8125 4.5,-2.625 3.625,-6.4375 8.4375,-9 15.5,-9 9,0 14.25,4.75 14.25,12.6875 v 5.4375 l -18.6875,1.0625 c -15,0.875 -23.5625,7.875 -23.5625,19 0,11.6875 8.6875,19.5 21.625,19.5 z m 2.4375,-9.25 c -7.8125,0 -13,-4.0625 -13,-10.25 0,-6.125 5,-10 13.75,-10.5625 L 260.125,96 v 5.3125 c 0,9.375 -7.9375,16.5625 -18.1875,16.5625 z"
       id="path5472" />
    <path
       d="m 290.4375,127.125 c 3.125,0 5.3125,-2.1875 5.3125,-5.3125 V 115 H 296 c 4.25,7.5 11.6875,12.125 21.1875,12.125 16.625,0 27.625,-13.1875 27.625,-33.625 0,-20.375 -11.0625,-33.625 -27.4375,-33.625 -9.1875,0 -16.75,4.5625 -20.875,12 h -0.25 V 40.5 c 0,-3.4375 -2.25,-5.8125 -5.4375,-5.8125 -3.1875,0 -5.4375,2.375 -5.4375,5.8125 v 81.3125 c 0,3.1875 2,5.3125 5.0625,5.3125 z m 24.625,-9.5625 c -11,0 -18.875,-9.5625 -18.875,-24.0625 0,-14.4375 7.875,-24.0625 18.875,-24.0625 11.5,0 18.625,9.3125 18.625,24.0625 0,14.875 -7.125,24.0625 -18.625,24.0625 z"
       id="path5474" />
    <path
       d="m 413.25,127.5 c 20.1875,0 33.3125,-10.4375 33.3125,-27.125 0,-12.75 -7.4375,-20.25 -26.25,-24.375 l -10,-2.1875 C 398,71.125 393.1875,66.25 393.1875,59.125 c 0,-9.1875 8.6875,-14.6875 19.9375,-14.6875 9.75,0 17.1875,4 20.3125,13.125 1,2.875 2.75,4.375 5.625,4.375 3,0 5.125,-2 5.125,-5.0625 0,-1.1875 -0.125,-2.125 -0.3125,-2.8125 -3.25,-12.1875 -15.375,-19.75 -30.4375,-19.75 -18.6875,0 -31.8125,10.4375 -31.8125,25.3125 0,12.8125 7.8125,21 25.875,24.9375 l 10,2.1875 c 12.5,2.75 17.5,7.75 17.5,15.3125 0,8.875 -8.875,15.3125 -21.125,15.3125 -11.375,0 -20.25,-4.375 -23,-13.6875 -0.875,-3 -2.625,-4.4375 -5.4375,-4.4375 -3.1875,0 -5.1875,2.25 -5.1875,5.8125 0,1.3125 0.25,2.6875 0.625,3.9375 3.375,10.875 15.4375,18.5 32.375,18.5 z"
       id="path5476" />
    <path
       d="m 461.5,111 c 0,10.375 5.25,15.5 15.75,15.5 h 0.6875 c 6.0625,0 7.9375,-1.75 7.9375,-5.0625 0,-2.5625 -1.625,-4 -5.1875,-4.25 L 479.75,117.125 c -5.4375,-0.375 -7.375,-3 -7.375,-8.5 V 69.9375 h 8.375 c 3.125,0 4.875,-1.625 4.875,-4.5 C 485.625,62.625 483.875,61 480.75,61 h -8.375 V 49.875 c 0,-3.4375 -2.25,-5.8125 -5.4375,-5.8125 -3.1875,0 -5.4375,2.375 -5.4375,5.8125 V 61 h -5.4375 c -3.125,0 -4.875,1.625 -4.875,4.4375 0,2.875 1.75,4.5 4.875,4.5 H 461.5 Z"
       id="path5478" />
    <path
       d="m 514.25,127.125 c 8.75,0 17.0625,-4.875 20.9375,-12.3125 h 0.25 v 6.8125 c 0,3.25 2.125,5.5 5.1875,5.5 3,0 5.125,-2.25 5.125,-5.5 V 81.0625 c 0,-12.9375 -9.625,-21.1875 -24.875,-21.1875 -10.5625,0 -20.0625,4.6875 -23.75,11.8125 -0.875,1.5625 -1.3125,3.125 -1.3125,4.5 0,2.9375 2,4.875 4.8125,4.875 2.0625,0 3.5,-0.8125 4.5,-2.625 3.625,-6.4375 8.4375,-9 15.5,-9 9,0 14.25,4.75 14.25,12.6875 v 5.4375 l -18.6875,1.0625 c -15,0.875 -23.5625,7.875 -23.5625,19 0,11.6875 8.6875,19.5 21.625,19.5 z m 2.4375,-9.25 c -7.8125,0 -13,-4.0625 -13,-10.25 0,-6.125 5,-10 13.75,-10.5625 L 534.875,96 v 5.3125 c 0,9.375 -7.9375,16.5625 -18.1875,16.5625 z"
       id="path5480" />
    <path
       d="m 582.125,127.125 c 15.4375,0 25.875,-7.8125 25.875,-19.4375 0,-9.5625 -5,-14.3125 -18.5625,-17.625 l -9.6875,-2.375 c -7.125,-1.75 -10.625,-4.875 -10.625,-9.375 0,-5.5625 5.4375,-9.5 13.25,-9.5 6.625,0 10.8125,2.375 13.625,7.8125 1.1875,2.25 2.6875,2.9375 4.8125,2.9375 2.625,0 4.25,-1.6875 4.25,-4.25 0,-0.5 -0.0625,-1 -0.1875,-1.625 C 603.1875,65.875 593.6875,59.875 583,59.875 c -14.6875,0 -24.625,7.6875 -24.625,19 0,9.125 6.0625,15.0625 18.625,18.1875 l 9.9375,2.5 c 7.3125,1.8125 10,4.3125 10,9 0,6.0625 -5.625,9.6875 -13.9375,9.6875 -8.3125,0 -12.1875,-2.5625 -15.4375,-8.25 -1.25,-2.25 -2.8125,-3.25 -4.75,-3.25 -2.8125,0 -4.9375,1.625 -4.9375,4.5 0,0.8125 0.125,1.625 0.5,2.5625 3.125,8.125 12.1875,13.3125 23.75,13.3125 z"
       id="path5482" />
    <path
       d="m 625.125,127.125 c 3.1875,0 5.4375,-2.375 5.4375,-5.8125 V 88.125 c 0,-11.25 6.6875,-18.625 17.5,-18.625 10.1875,0 15.375,6.1875 15.375,16.5 v 35.3125 c 0,3.4375 2.25,5.8125 5.4375,5.8125 3.1875,0 5.4375,-2.375 5.4375,-5.8125 V 84 c 0,-14.5 -8.625,-24.125 -22.875,-24.125 -9.875,0 -17,4.25 -20.625,11.5 h -0.25 v -31 c 0,-3.375 -2.125,-5.6875 -5.4375,-5.6875 -3.25,0 -5.4375,2.3125 -5.4375,5.6875 v 80.9375 c 0,3.4375 2.25,5.8125 5.4375,5.8125 z"
       id="path5484" />
  </g>
</svg>
