<?xml version="1.0" encoding="UTF-8" standalone="no"?>
<svg
   xmlns:dc="http://purl.org/dc/elements/1.1/"
   xmlns:cc="http://creativecommons.org/ns#"
   xmlns:rdf="http://www.w3.org/1999/02/22-rdf-syntax-ns#"
   xmlns:svg="http://www.w3.org/2000/svg"
   xmlns="http://www.w3.org/2000/svg"
   xmlns:sodipodi="http://sodipodi.sourceforge.net/DTD/sodipodi-0.dtd"
   xmlns:inkscape="http://www.inkscape.org/namespaces/inkscape"
   inkscape:export-ydpi="64"
   inkscape:export-xdpi="64"
   inkscape:export-filename="/Users/des/src/tab-stash/dist/icons/logo-64.png"
   inkscape:version="1.0beta1 (fe3e306, 2019-09-17)"
   sodipodi:docname="logo.svg"
   width="96"
   height="96"
   viewBox="0 0 96 96"
   version="1.1"
   id="svg10">
  <sodipodi:namedview
     inkscape:document-rotation="0"
     inkscape:current-layer="svg10"
     inkscape:window-maximized="0"
     inkscape:window-y="190"
     inkscape:window-x="190"
     inkscape:cy="445.71429"
     inkscape:cx="-172.85714"
     inkscape:zoom="0.35"
     showgrid="true"
     id="namedview9"
     inkscape:window-height="1272"
     inkscape:window-width="2217"
     inkscape:pageshadow="2"
     inkscape:pageopacity="0"
     guidetolerance="10"
     gridtolerance="10"
     objecttolerance="10"
     borderopacity="1"
     bordercolor="#666666"
     pagecolor="#ffffff">
    <inkscape:grid
       spacingy="3"
       spacingx="3"
       empspacing="2"
       id="grid817"
       type="xygrid" />
  </sodipodi:namedview>
  <metadata
     id="metadata16">
    <rdf:RDF>
      <cc:Work
         rdf:about="">
        <dc:format>image/svg+xml</dc:format>
        <dc:type
           rdf:resource="http://purl.org/dc/dcmitype/StillImage" />
        <dc:title></dc:title>
      </cc:Work>
    </rdf:RDF>
  </metadata>
  <defs
     id="defs14" />
  <path
     style="fill:#808080;fill-opacity:1"
     fill="context-fill"
     inkscape:connector-curvature="0"
     id="path5"
     d="M 74.25,24 H 70.5 V 6 A 7.5,6 0 0 0 63,0 H 33 a 7.5,6 0 0 0 -7.5,6 v 18 h -3.75 a 3.75,3 0 0 0 0,6 h 52.5 a 3.75,3 0 1 0 0,-6 z" />
  <path
     style="fill:#808080;fill-opacity:1"
     fill="context-fill"
     inkscape:connector-curvature="0"
     d="m 27,54 a 3,3 0 1 0 0,6 h 42 a 3,3 0 1 0 0,-6 z"
     id="path8" />
  <path
     style="fill:#808080;fill-opacity:1"
     fill="context-fill"
     sodipodi:nodetypes="csssscsccccsc"
     inkscape:connector-curvature="0"
     d="m 6,42 v 30 c 0,12 6,18 18,18 H 72 C 84,90 90,84 90,72 V 42 c 0,0 0,-6 -6,-6 -6,0 -6,6 -6,6 V 78 H 18 V 42 c 0,0 0,-6 -6,-6 -6,0 -6,6 -6,6 z"
     id="path10" />
  <path
     style="fill:#808080;fill-opacity:1"
     fill="context-fill"
     inkscape:connector-curvature="0"
     id="path3702"
     d="m 27,66 a 3,3 0 1 0 0,6 h 42 a 3,3 0 1 0 0,-6 z" />
  <path
     style="fill:#808080;fill-opacity:1"
     fill="context-fill"
     inkscape:connector-curvature="0"
     id="path832"
     d="m 27,42 a 3,3 0 1 0 0,6 h 42 a 3,3 0 1 0 0,-6 z" />
</svg>
